<svg width="28" height="21" viewBox="0 0 28 21" fill="none" xmlns="http://www.w3.org/2000/svg">
<path d="M24.1443 11.9773L26.1723 4.76546H7.3858L9.413 11.9773C9.54417 12.4424 9.81248 12.8283 10.1668 13.0974C10.522 13.3657 10.9666 13.5199 11.4513 13.5199H22.1051C22.5898 13.5199 23.0344 13.3666 23.3896 13.0974C23.7448 12.8283 24.0139 12.4424 24.1443 11.9773ZM22.106 16.0496C22.7721 16.0496 23.3751 16.3196 23.8112 16.7566C24.2482 17.1927 24.5182 17.7957 24.5182 18.4618C24.5182 19.1271 24.2482 19.7301 23.8112 20.1671C23.3751 20.6032 22.7721 20.8732 22.106 20.8732C21.4408 20.8732 20.8369 20.6032 20.4008 20.1671C19.9647 19.7301 19.6946 19.1279 19.6946 18.4618C19.6946 17.7957 19.9647 17.1927 20.4008 16.7566C20.8369 16.3196 21.4399 16.0496 22.106 16.0496ZM22.9092 17.6586C22.7039 17.4533 22.4203 17.3264 22.106 17.3264C21.7925 17.3264 21.5081 17.4533 21.3028 17.6586C21.0975 17.8639 20.9706 18.1484 20.9706 18.4618C20.9706 18.7753 21.0975 19.0589 21.3028 19.265C21.5081 19.4703 21.7917 19.5972 22.106 19.5972C22.4194 19.5972 22.7039 19.4703 22.9092 19.265C23.1145 19.0598 23.2422 18.7761 23.2422 18.4618C23.2422 18.1484 23.1153 17.8639 22.9092 17.6586ZM11.4521 16.0496C12.1174 16.0496 12.7204 16.3196 13.1574 16.7566C13.5935 17.1927 13.8635 17.7957 13.8635 18.4618C13.8635 19.1271 13.5935 19.7301 13.1574 20.1671C12.7204 20.6032 12.1182 20.8732 11.4521 20.8732C10.786 20.8732 10.183 20.6032 9.74689 20.1671C9.30994 19.7301 9.03993 19.1279 9.03993 18.4618C9.03993 17.7957 9.30994 17.1927 9.74689 16.7566C10.183 16.3196 10.786 16.0496 11.4521 16.0496ZM12.2553 17.6586C12.0501 17.4533 11.7664 17.3264 11.4521 17.3264C11.1378 17.3264 10.8542 17.4533 10.6489 17.6586C10.4436 17.8639 10.3167 18.1484 10.3167 18.4618C10.3167 18.7753 10.4436 19.0589 10.6489 19.265C10.8542 19.4703 11.1378 19.5972 11.4521 19.5972C11.7656 19.5972 12.0492 19.4703 12.2553 19.265C12.4606 19.0598 12.5875 18.7761 12.5875 18.4618C12.5875 18.1484 12.4606 17.8639 12.2553 17.6586ZM5.92076 4.26036L5.59709 3.11048C5.46677 2.64542 5.19847 2.25957 4.84328 1.99041C4.4881 1.72125 4.04348 1.56794 3.55882 1.56794H1.48563C1.133 1.56794 0.847656 1.28259 0.847656 0.929964C0.847656 0.577333 1.133 0.291992 1.48563 0.291992H3.55882C4.32711 0.291992 5.03834 0.539856 5.61072 0.973404C6.18311 1.4078 6.61495 2.02618 6.82363 2.76637L7.02721 3.48952H27.013C27.0701 3.48952 27.1271 3.49803 27.1851 3.51422C27.5241 3.60876 27.7217 3.96054 27.6263 4.29954L25.3708 12.3215C25.163 13.0616 24.7311 13.68 24.1579 14.1144C23.5855 14.5488 22.8734 14.7967 22.106 14.7967H11.4521C10.6838 14.7967 9.97261 14.5488 9.40022 14.1144C8.82784 13.6809 8.39599 13.0625 8.18731 12.3215L5.94376 4.34043C5.93439 4.31402 5.92673 4.28847 5.92076 4.26036Z" fill="white"/>
</svg>
