<svg width="28" height="21" viewBox="0 0 28 21" fill="none" xmlns="http://www.w3.org/2000/svg">
<path d="M24.1443 12.1043L26.1723 4.89241H7.3858L9.413 12.1043C9.54417 12.5694 9.81248 12.9552 10.1668 13.2244C10.522 13.4927 10.9666 13.6468 11.4513 13.6468H22.1051C22.5898 13.6468 23.0344 13.4935 23.3896 13.2244C23.7448 12.9552 24.0131 12.5694 24.1434 12.1043H24.1443ZM22.106 16.1766C22.7721 16.1766 23.3751 16.4466 23.8112 16.8836C24.2482 17.3197 24.5182 17.9227 24.5182 18.5888C24.5182 19.254 24.2482 19.8571 23.8112 20.294C23.3751 20.7301 22.7721 21.0001 22.106 21.0001C21.4408 21.0001 20.8369 20.7301 20.4008 20.294C19.9647 19.8571 19.6946 19.2549 19.6946 18.5888C19.6946 17.9227 19.9647 17.3197 20.4008 16.8836C20.8369 16.4466 21.4399 16.1766 22.106 16.1766ZM22.9092 17.7856C22.7039 17.5803 22.4203 17.4534 22.106 17.4534C21.7925 17.4534 21.5081 17.5803 21.3028 17.7856C21.0975 17.9908 20.9706 18.2753 20.9706 18.5888C20.9706 18.9022 21.0975 19.1859 21.3028 19.392C21.5081 19.5973 21.7917 19.7242 22.106 19.7242C22.4194 19.7242 22.7039 19.5973 22.9092 19.392C23.1145 19.1867 23.2422 18.9031 23.2422 18.5888C23.2422 18.2753 23.1153 17.9908 22.9092 17.7856ZM11.4521 16.1766C12.1174 16.1766 12.7204 16.4466 13.1574 16.8836C13.5935 17.3197 13.8635 17.9227 13.8635 18.5888C13.8635 19.254 13.5935 19.8571 13.1574 20.294C12.7204 20.7301 12.1182 21.0001 11.4521 21.0001C10.786 21.0001 10.183 20.7301 9.74689 20.294C9.30994 19.8571 9.03993 19.2549 9.03993 18.5888C9.03993 17.9227 9.30994 17.3197 9.74689 16.8836C10.183 16.4466 10.786 16.1766 11.4521 16.1766ZM12.2553 17.7856C12.0501 17.5803 11.7664 17.4534 11.4521 17.4534C11.1378 17.4534 10.8542 17.5803 10.6489 17.7856C10.4436 17.9908 10.3167 18.2753 10.3167 18.5888C10.3167 18.9022 10.4436 19.1859 10.6489 19.392C10.8542 19.5973 11.1378 19.7242 11.4521 19.7242C11.7656 19.7242 12.0492 19.5973 12.2553 19.392C12.4606 19.1867 12.5875 18.9031 12.5875 18.5888C12.5875 18.2753 12.4606 17.9908 12.2553 17.7856ZM5.92076 4.38732L5.59709 3.23743C5.46677 2.77237 5.19847 2.38652 4.84328 2.11736C4.4881 1.84821 4.04348 1.69489 3.55882 1.69489H1.48563C1.133 1.69489 0.847656 1.40955 0.847656 1.05692C0.847656 0.704286 1.133 0.418945 1.48563 0.418945H3.55882C4.32711 0.418945 5.03834 0.666809 5.61072 1.10036C6.18311 1.53476 6.61495 2.15314 6.82364 2.89332L7.02721 3.61647H27.013V3.61732C27.0701 3.61732 27.1271 3.62499 27.1851 3.64117C27.5241 3.73572 27.7217 4.08749 27.6263 4.4265L25.3708 12.4484C25.163 13.1886 24.7311 13.807 24.1579 14.2414C23.5855 14.6758 22.8734 14.9236 22.106 14.9236H11.4521C10.6838 14.9236 9.97261 14.6758 9.40022 14.2414C8.82784 13.8078 8.39599 13.1894 8.18731 12.4484L5.94376 4.46738C5.93439 4.44098 5.92673 4.41457 5.92076 4.38646V4.38732Z" fill="white"/>
</svg> 