<svg width="12" height="13" viewBox="0 0 12 13" fill="none" xmlns="http://www.w3.org/2000/svg">
<path fill-rule="evenodd" clip-rule="evenodd" d="M11.7725 1.82466C11.8446 1.75269 11.9018 1.66724 11.9408 1.57318C11.9798 1.47911 11.9999 1.37828 12 1.27644C12.0001 1.17461 11.9801 1.07375 11.9412 0.97964C11.9022 0.88553 11.8452 0.800005 11.7732 0.72795C11.7012 0.655894 11.6158 0.59872 11.5217 0.55969C11.4277 0.52066 11.3268 0.500539 11.225 0.500477C11.1232 0.500414 11.0223 0.520411 10.9282 0.559325C10.8341 0.598239 10.7486 0.655309 10.6765 0.727275L5.9999 5.40396L1.32464 0.727275C1.17912 0.581753 0.981751 0.5 0.775955 0.5C0.570159 0.5 0.372791 0.581753 0.227272 0.727275C0.081752 0.872798 1.5333e-09 1.07017 0 1.27597C-1.5333e-09 1.48177 0.081752 1.67914 0.227272 1.82466L4.90388 6.5L0.227272 11.1753C0.155218 11.2474 0.0980613 11.3329 0.0590659 11.4271C0.0200705 11.5212 0 11.6221 0 11.724C0 11.8259 0.0200705 11.9268 0.0590659 12.021C0.0980613 12.1151 0.155218 12.2007 0.227272 12.2727C0.372791 12.4182 0.570159 12.5 0.775955 12.5C0.877855 12.5 0.978757 12.4799 1.0729 12.4409C1.16704 12.4019 1.25258 12.3448 1.32464 12.2727L5.9999 7.59603L10.6765 12.2727C10.822 12.4181 11.0193 12.4996 11.225 12.4995C11.4307 12.4994 11.6279 12.4176 11.7732 12.272C11.9185 12.1265 12.0001 11.9292 12 11.7236C11.9999 11.5179 11.918 11.3207 11.7725 11.1753L7.09592 6.5L11.7725 1.82466Z" fill="#9FB2C5"/>
</svg>
