<svg width="36" height="35" viewBox="0 0 36 35" fill="none" xmlns="http://www.w3.org/2000/svg">
<path d="M13.3903 18.1279C8.87959 20.6328 3.36893 24.4502 2.09083 25.7283C-0.0302776 27.8495 -0.0302776 31.2879 2.09083 33.409C4.21194 35.5301 7.65037 35.5301 9.77148 33.409C11.0484 32.1321 14.8603 26.6293 17.3652 22.1209C16.4589 21.7939 15.6255 21.2767 14.9243 20.5755C14.2237 19.8749 13.715 19.0319 13.3903 18.1279ZM5.93116 32.5859C4.26746 32.5859 2.91393 31.2324 2.91393 29.5687C2.91393 27.905 4.26746 26.5514 5.93116 26.5514C7.59486 26.5514 8.94839 27.905 8.94839 29.5687C8.94839 31.2324 7.59486 32.5859 5.93116 32.5859Z" fill="currentColor"/>
<path d="M33.5574 8.91354C34.252 6.98855 33.8338 4.75157 32.2908 3.20855C30.7478 1.66554 28.5108 1.24735 26.5858 1.94192C25.2661 0.377783 23.1196 -0.378337 21.0118 0.18649C18.904 0.751317 17.4237 2.47899 17.0622 4.4939C15.0473 4.85476 13.3197 6.33562 12.7548 8.44346C12.19 10.5513 12.9461 12.6972 14.5103 14.0175C13.8157 15.9425 14.2339 18.1795 15.7769 19.7225C17.3199 21.2655 19.5569 21.6837 21.4819 20.9891C22.8016 22.5533 24.9481 23.3094 27.0559 22.7446C29.1637 22.1797 30.6446 20.4521 31.0054 18.4372C33.0203 18.0763 34.748 16.5954 35.3128 14.4876C35.8777 12.3797 35.1215 10.2339 33.5574 8.91354ZM24.0344 19.9138C19.3686 19.9138 15.5862 16.1314 15.5862 11.4655C15.5862 6.79967 19.3686 3.01726 24.0344 3.01726C28.7003 3.01726 32.4827 6.79967 32.4827 11.4655C32.4827 16.1314 28.7003 19.9138 24.0344 19.9138Z" fill="currentColor"/>
<path d="M24.0343 4.22461C20.0413 4.22461 16.793 7.47297 16.793 11.466C16.793 15.459 20.0413 18.7073 24.0343 18.7073C28.0273 18.7073 31.2757 15.459 31.2757 11.466C31.2757 7.47297 28.0273 4.22461 24.0343 4.22461ZM21.7642 7.20624C20.1867 8.05047 19.2067 9.68279 19.2067 11.466C19.2067 11.7991 18.9364 12.0694 18.6033 12.0694C18.2702 12.0694 17.9999 11.7991 17.9999 11.466C17.9999 9.23745 19.2242 7.19719 21.1945 6.14236C21.489 5.98607 21.8541 6.0959 22.0116 6.38978C22.1685 6.68366 22.058 7.04935 21.7642 7.20685V7.20624ZM24.0343 6.6384C23.8303 6.6384 23.6246 6.65107 23.4236 6.67702C23.3983 6.68004 23.3723 6.68185 23.347 6.68185C23.0477 6.68185 22.7882 6.45917 22.749 6.15443C22.7073 5.82374 22.9409 5.52202 23.2716 5.47978C23.5226 5.4478 23.7791 5.4315 24.0343 5.4315C24.3674 5.4315 24.6378 5.70185 24.6378 6.03495C24.6378 6.36805 24.3674 6.6384 24.0343 6.6384Z" fill="currentColor"/>
</svg>
