<svg width="21" height="35" viewBox="0 0 21 35" fill="none" xmlns="http://www.w3.org/2000/svg">
<path d="M4.07245 7.08641C3.10089 7.38382 2.21387 7.72909 1.41797 8.11233L4.40901 26.925H16.7173L19.7084 8.11233C18.9125 7.72909 18.0254 7.38382 17.0539 7.08641C12.8079 5.7863 8.31841 5.7863 4.07245 7.08641Z" fill="currentColor"/>
<path d="M17.2455 0.983128C12.8954 -0.327709 8.22957 -0.327709 3.87951 0.983128C2.73535 1.32791 1.57094 1.77179 0.5 2.34246L1.20319 6.76534C1.96545 6.41962 2.79335 6.10514 3.68725 5.83147C8.18487 4.4536 12.9393 4.45403 17.4377 5.83147C18.3316 6.10514 19.1595 6.41962 19.9218 6.76534L20.625 2.34246C19.554 1.77179 18.3896 1.32791 17.2455 0.983128Z" fill="currentColor"/>
<path d="M4.40918 32.8123C4.40918 34.0204 5.38853 34.9997 6.59668 34.9997H7.19728C7.3089 33.2377 8.77387 31.8373 10.5633 31.8373C12.3528 31.8373 13.8178 33.2377 13.9294 34.9997H14.53C15.7381 34.9997 16.7175 34.0204 16.7175 32.8123V28.2373H4.40918V32.8123Z" fill="currentColor"/>
<path d="M10.5623 33.1504C9.4976 33.1504 8.62869 33.9639 8.51953 35.0004H12.6051C12.4959 33.9639 11.627 33.1504 10.5623 33.1504Z" fill="currentColor"/>
</svg>
