<svg width="22" height="35" viewBox="0 0 22 35" fill="none" xmlns="http://www.w3.org/2000/svg">
<path d="M17.8567 34.9998H3.47727C2.55543 34.9988 1.67161 34.6333 1.01971 33.9834C0.367817 33.3335 0.00109069 32.4523 0 31.533V13.0388C0.00156307 12.4 0.151476 11.7702 0.43799 11.1988C0.724504 10.6274 1.13983 10.1299 1.65143 9.74534C1.99287 9.48889 2.27008 9.15703 2.4613 8.77579C2.65252 8.39456 2.75254 7.97433 2.75352 7.54808V5.83218C2.75352 5.65058 2.82587 5.47642 2.95464 5.34801C3.08342 5.2196 3.25807 5.14746 3.44019 5.14746H17.8938C18.0759 5.14746 18.2505 5.2196 18.3793 5.34801C18.5081 5.47642 18.5804 5.65058 18.5804 5.83218V7.54808C18.5814 7.97433 18.6814 8.39456 18.8727 8.77579C19.0639 9.15703 19.3411 9.48889 19.6825 9.74534C20.1941 10.1299 20.6095 10.6274 20.896 11.1988C21.1825 11.7702 21.3324 12.4 21.334 13.0388V31.533C21.3329 32.4523 20.9661 33.3335 20.3142 33.9834C19.6623 34.6333 18.7785 34.9988 17.8567 34.9998ZM4.12342 6.51553V7.54671C4.1219 8.18547 3.97201 8.81519 3.68549 9.3865C3.39897 9.9578 2.98361 10.4551 2.47199 10.8395C2.1312 11.0965 1.85468 11.4286 1.66407 11.81C1.47347 12.1913 1.37396 12.6114 1.37333 13.0375V31.5317C1.37405 32.0878 1.59597 32.6209 1.9904 33.0141C2.38483 33.4073 2.91955 33.6284 3.47727 33.629H17.8567C18.4144 33.6284 18.9491 33.4073 19.3436 33.0141C19.738 32.6209 19.9599 32.0878 19.9606 31.5317V13.0388C19.9596 12.6125 19.8596 12.1922 19.6683 11.8108C19.4771 11.4295 19.2 11.0975 18.8585 10.8409C18.3475 10.4562 17.9328 9.95865 17.6469 9.38737C17.361 8.81609 17.2117 8.18655 17.2105 7.54808V6.5169L4.12342 6.51553Z" fill="currentColor"/>
<path d="M18.1406 6.51714H3.18985C2.70869 6.51659 2.24739 6.32575 1.90716 5.98649C1.56693 5.64722 1.37555 5.18723 1.375 4.70743V1.80971C1.37536 1.32985 1.56669 0.869759 1.90696 0.530452C2.24723 0.191144 2.70864 0.000362701 3.18985 0L18.1406 0C18.6218 0.000362701 19.0832 0.191144 19.4235 0.530452C19.7638 0.869759 19.9551 1.32985 19.9554 1.80971V4.70743C19.9549 5.18723 19.7635 5.64722 19.4233 5.98649C19.083 6.32575 18.6217 6.51659 18.1406 6.51714ZM3.18985 1.36943C3.07275 1.36943 2.96045 1.41582 2.87765 1.49839C2.79485 1.58095 2.74833 1.69294 2.74833 1.80971V4.70743C2.74851 4.82414 2.79509 4.93602 2.87785 5.01855C2.96061 5.10108 3.07281 5.14752 3.18985 5.1477H18.1406C18.2576 5.14752 18.3698 5.10108 18.4526 5.01855C18.5354 4.93602 18.5819 4.82414 18.5821 4.70743V1.80971C18.5821 1.69294 18.5356 1.58095 18.4528 1.49839C18.37 1.41582 18.2577 1.36943 18.1406 1.36943H3.18985Z" fill="currentColor"/>
<path d="M20.6473 28.8267H0.686664C0.504549 28.8267 0.329894 28.7546 0.201119 28.6262C0.0723447 28.4978 0 28.3236 0 28.142L0 13.0392C0 12.8576 0.0723447 12.6835 0.201119 12.555C0.329894 12.4266 0.504549 12.3545 0.686664 12.3545H20.6473C20.8294 12.3545 21.0041 12.4266 21.1328 12.555C21.2616 12.6835 21.334 12.8576 21.334 13.0392V28.142C21.334 28.3236 21.2616 28.4978 21.1328 28.6262C21.0041 28.7546 20.8294 28.8267 20.6473 28.8267ZM1.37333 27.4573H19.9606V13.7239H1.37333V27.4573Z" fill="currentColor"/>
<path d="M10.6671 25.3913C10.485 25.3913 10.3104 25.3192 10.1816 25.1908C10.0528 25.0624 9.98047 24.8882 9.98047 24.7066V16.4708C9.98047 16.2893 10.0528 16.1151 10.1816 15.9867C10.3104 15.8583 10.485 15.7861 10.6671 15.7861C10.8492 15.7861 11.0239 15.8583 11.1527 15.9867C11.2815 16.1151 11.3538 16.2893 11.3538 16.4708V24.7066C11.3538 24.7965 11.336 24.8856 11.3015 24.9687C11.267 25.0517 11.2164 25.1272 11.1527 25.1908C11.0889 25.2544 11.0132 25.3048 10.9299 25.3392C10.8466 25.3736 10.7573 25.3913 10.6671 25.3913Z" fill="currentColor"/>
<path d="M13.1233 25.3914H10.6671C10.485 25.3914 10.3104 25.3193 10.1816 25.1909C10.0528 25.0625 9.98047 24.8883 9.98047 24.7067V22.2582C9.98174 21.2701 10.3759 20.3229 11.0766 19.6242C11.7772 18.9256 12.7271 18.5325 13.718 18.5312H16.1742C16.3563 18.5312 16.5309 18.6034 16.6597 18.7318C16.7885 18.8602 16.8608 19.0344 16.8608 19.216V21.6645C16.8597 22.6526 16.4656 23.5999 15.7649 24.2986C15.0643 24.9973 14.1142 25.3903 13.1233 25.3914ZM11.3538 24.022H13.1233C13.7501 24.0213 14.351 23.7727 14.7943 23.3307C15.2375 22.8887 15.4868 22.2895 15.4875 21.6645V19.9007H13.718C13.0912 19.9016 12.4904 20.1503 12.0473 20.5922C11.6041 21.0341 11.3547 21.6332 11.3538 22.2582V24.022Z" fill="currentColor"/>
<path d="M10.6657 22.6463H8.21017C7.21931 22.645 6.2694 22.252 5.56875 21.5533C4.86811 20.8547 4.47393 19.9074 4.47266 18.9194V16.4708C4.47266 16.2893 4.545 16.1151 4.67378 15.9867C4.80255 15.8583 4.97721 15.7861 5.15932 15.7861H7.61552C8.60661 15.7872 9.55676 16.1804 10.2574 16.8794C10.958 17.5785 11.3518 18.5261 11.3523 19.5144V21.9636C11.3518 22.1449 11.2792 22.3185 11.1505 22.4465C11.0218 22.5745 10.8474 22.6463 10.6657 22.6463ZM5.84598 17.1556V18.9194C5.84689 19.5444 6.09627 20.1435 6.53944 20.5854C6.98261 21.0273 7.58343 21.276 8.21017 21.2769H9.97901V19.5144C9.97829 18.8896 9.72904 18.2905 9.28596 17.8487C8.84287 17.4069 8.24213 17.1583 7.61552 17.1576L5.84598 17.1556Z" fill="currentColor"/>
<path d="M17.499 6.44727H3.68317C4.14366 6.90779 3.68316 8.7499 2.76212 9.67095C0.920019 11.5131 0.7665 12.5876 0.920009 12.8946H20.2621C20.2621 12.1271 19.9858 10.4999 18.8806 10.1315C17.7753 9.76305 17.499 7.52183 17.499 6.44727Z" fill="currentColor"/>
<path d="M20.266 28.5527H0.923867C-0.181398 32.9738 2.30548 33.9255 3.68706 34.079C6.75724 34.2326 12.8976 34.079 17.5029 34.079C21.2055 34.079 20.88 30.3948 20.266 28.5527Z" fill="currentColor"/>
</svg>
