<svg width="32" height="35" viewBox="0 0 32 35" fill="none" xmlns="http://www.w3.org/2000/svg">
<path d="M22.258 8.39834C22.027 8.34604 21.7975 8.30973 21.5723 8.28939C20.4247 8.18625 19.3032 8.28648 18.218 8.38382C17.7198 8.42885 17.2375 8.46953 16.7639 8.49277C16.8801 6.36599 17.3551 4.37592 18.3749 2.22304C18.6335 1.6768 18.4011 1.02454 17.8548 0.765963C17.3101 0.507383 16.6563 0.739815 16.3978 1.28602C15.7644 2.62252 15.3257 3.91251 15.0337 5.17043C13.6507 3.03205 10.8064 0.438847 5.06509 0.00298879C4.72952 -0.0217075 4.40268 0.107584 4.17605 0.355997C3.94943 0.604409 3.84919 0.941429 3.90439 1.27264C3.94071 1.49199 4.76875 6.2612 7.99223 9.1508C2.96425 11.2877 0.0924955 15.9639 0.546948 21.5728C0.809887 24.8181 2.18123 27.9284 4.40682 30.3297C6.8648 32.9823 10.1507 34.5659 13.9076 34.9099C14.5671 34.9709 15.2164 35 15.8571 35C24.2042 35 30.7008 29.9635 31.6406 22.4892C32.579 16.8093 29.33 9.99079 22.258 8.39834ZM6.43065 2.36811C12.4229 3.37192 13.947 7.25515 14.3334 9.08263C12.7456 9.22499 11.3379 8.88506 10.138 8.06427C8.02871 6.62029 6.93337 4.00395 6.42927 2.36837L6.43065 2.36811ZM29.4779 22.1524C29.475 22.1684 29.4736 22.1829 29.4707 22.1974C29.0697 25.4312 27.373 28.2682 24.6956 30.1887C21.8555 32.2254 18.1934 33.1042 14.1052 32.7309C6.86482 32.0685 3.13139 26.3912 2.72603 21.3956C2.39336 17.3003 4.22814 12.3672 10.3223 10.6442C11.3436 11.08 12.4432 11.3052 13.6185 11.3052C13.9381 11.3052 14.2621 11.2877 14.5918 11.2543C14.6761 12.6053 14.8533 13.9418 15.0538 15.2797C15.0596 15.3189 15.0712 15.3567 15.0814 15.3944C13.9556 15.2535 12.8791 14.8787 12.022 14.2672C11.531 13.9156 10.8467 14.0304 10.4966 14.5214C10.1451 15.0124 10.2598 15.6966 10.7508 16.0467C12.2602 17.1261 14.1821 17.6636 16.1013 17.6636C18.0537 17.6636 20.0017 17.1058 21.5082 15.993C21.9934 15.6342 22.0965 14.9485 21.7377 14.4633C21.3789 13.9781 20.6947 13.875 20.208 14.2338C19.3727 14.8512 18.3122 15.2332 17.1965 15.3843C17.2314 15.2478 17.2401 15.1025 17.2169 14.9543C16.9845 13.4072 16.8203 12.0039 16.7578 10.6835C17.3186 10.6588 17.8706 10.6109 18.4124 10.5615C19.4468 10.4685 20.423 10.3814 21.3745 10.4671C21.5038 10.4787 21.6389 10.5005 21.7769 10.531C27.5951 11.8413 30.2605 17.4675 29.4777 22.1511L29.4779 22.1524Z" fill="currentColor"/>
<path d="M5.70679 29.5655C-3.06987 17.9625 4.90102 11.5907 9.98355 9.85523C12.0662 10.3015 17.9172 10.0412 20.5824 9.85523C33.9706 12.2353 30.9954 23.1194 27.8343 28.2639C19.3552 37.1893 9.54966 32.8506 5.70679 29.5655Z" fill="currentColor"/>
</svg>
