<svg width="29" height="35" viewBox="0 0 29 35" fill="none" xmlns="http://www.w3.org/2000/svg">
<path d="M5.20329 35.0002H14.9424C15.8661 35.0002 16.6163 34.25 16.6163 33.3263V32.5654H3.5293V33.3263C3.5293 34.25 4.2796 35.0002 5.20329 35.0002Z" fill="currentColor"/>
<path d="M10.1747 18.8116C10.1458 18.7842 10.1093 18.7705 10.0728 18.7705C10.0362 18.7705 9.99819 18.7842 9.96928 18.8131C9.30278 19.4462 7.72929 21.1368 7.51168 23.1256C7.34886 24.6108 8.33798 25.9682 9.71669 26.1508C10.476 26.2528 11.208 26.0321 11.7771 25.5345C12.3386 25.043 12.6612 24.3339 12.6612 23.5882C12.6612 21.4121 10.9234 19.5235 10.1763 18.8129L10.1747 18.8116Z" fill="currentColor"/>
<path d="M6.57227 4.26074H13.5723V5.78247H6.57227V4.26074Z" fill="currentColor"/>
<path d="M17.3775 0H6.42099C5.49729 0 4.74707 0.750227 4.74707 1.67393C4.74707 2.59763 5.49729 3.34786 6.42099 3.34786H17.3775C18.3012 3.34786 19.0514 2.59763 19.0514 1.67393C19.0514 0.750227 18.3012 0 17.3775 0Z" fill="currentColor"/>
<path d="M4.75076 10.6519H15.3952H15.3982V8.36924C15.3982 7.44554 14.648 6.69531 13.7243 6.69531H6.42001C5.49632 6.69531 4.74609 7.44554 4.74609 8.36924V10.6519H4.74914H4.75076Z" fill="currentColor"/>
<path d="M16.8709 12.442C16.5818 11.9017 16.0172 11.5654 15.3963 11.5654H4.75032C4.12943 11.5654 3.56487 11.9017 3.27574 12.442C-0.405324 19.3201 -0.420556 25.7784 3.2027 31.6523H16.9438C20.567 25.7768 20.552 19.3201 16.8709 12.442ZM12.3788 26.2213C11.7382 26.7828 10.9149 27.0872 10.0658 27.0872C9.91058 27.0872 9.75384 27.0765 9.59711 27.0552C7.72993 26.8087 6.38777 24.9994 6.60538 23.0256C6.84733 20.8205 8.42386 19.0247 9.34144 18.1513C9.75231 17.7602 10.396 17.7587 10.8069 18.1513C11.6392 18.9426 13.5749 21.0578 13.5749 23.5885C13.5749 24.5959 13.1397 25.5561 12.3804 26.2211L12.3788 26.2213Z" fill="currentColor"/>
<path d="M26.964 14.4565C26.964 16.6889 23.6162 16.6889 23.6162 14.4565C23.6162 12.2241 26.964 12.2241 26.964 14.4565Z" fill="currentColor"/>
<path d="M23.9201 9.58739C23.9201 11.8198 20.5723 11.8198 20.5723 9.58739C20.5723 7.35498 23.9201 7.35498 23.9201 9.58739Z" fill="currentColor"/>
<path d="M28.7908 3.5004C28.7908 4.76041 27.7682 5.78302 26.5082 5.78302C25.2482 5.78302 24.2256 4.76041 24.2256 3.5004C24.2256 2.24039 25.2482 1.21777 26.5082 1.21777C27.7682 1.21777 28.7908 2.24039 28.7908 3.5004Z" fill="currentColor"/>
</svg>
