<svg width="436" height="55" viewBox="0 0 436 55" fill="none" xmlns="http://www.w3.org/2000/svg">
<path d="M3.024 43.288C2.448 43.288 1.98 43.156 1.62 42.892C1.284 42.628 1.08 42.28 1.008 41.848C0.936 41.392 1.02 40.888 1.26 40.336L10.764 19.276C11.076 18.58 11.448 18.088 11.88 17.8C12.336 17.488 12.852 17.332 13.428 17.332C13.98 17.332 14.472 17.488 14.904 17.8C15.36 18.088 15.744 18.58 16.056 19.276L25.596 40.336C25.86 40.888 25.956 41.392 25.884 41.848C25.812 42.304 25.608 42.664 25.272 42.928C24.936 43.168 24.492 43.288 23.94 43.288C23.268 43.288 22.74 43.132 22.356 42.82C21.996 42.484 21.672 41.98 21.384 41.308L19.044 35.872L20.988 37.132H5.796L7.74 35.872L5.436 41.308C5.124 42.004 4.8 42.508 4.464 42.82C4.128 43.132 3.648 43.288 3.024 43.288ZM13.356 22.624L8.316 34.612L7.38 33.46H19.404L18.504 34.612L13.428 22.624H13.356ZM31.8651 43.288C31.1211 43.288 30.5451 43.084 30.1371 42.676C29.7531 42.244 29.5611 41.656 29.5611 40.912V20.068C29.5611 19.276 29.7651 18.676 30.1731 18.268C30.6051 17.836 31.2171 17.62 32.0091 17.62H49.1811C49.9731 17.62 50.5731 17.836 50.9811 18.268C51.4131 18.676 51.6291 19.276 51.6291 20.068V40.912C51.6291 41.656 51.4251 42.244 51.0171 42.676C50.6331 43.084 50.0691 43.288 49.3251 43.288C48.5811 43.288 48.0051 43.084 47.5971 42.676C47.2131 42.244 47.0211 41.656 47.0211 40.912V21.472H34.1691V40.912C34.1691 41.656 33.9771 42.244 33.5931 42.676C33.2091 43.084 32.6331 43.288 31.8651 43.288ZM65.5476 43.288C64.8036 43.288 64.2276 43.084 63.8196 42.676C63.4356 42.244 63.2436 41.656 63.2436 40.912V21.472H56.2236C55.5996 21.472 55.1076 21.304 54.7476 20.968C54.4116 20.608 54.2436 20.128 54.2436 19.528C54.2436 18.904 54.4116 18.436 54.7476 18.124C55.1076 17.788 55.5996 17.62 56.2236 17.62H74.8716C75.4956 17.62 75.9756 17.788 76.3116 18.124C76.6716 18.436 76.8516 18.904 76.8516 19.528C76.8516 20.128 76.6716 20.608 76.3116 20.968C75.9756 21.304 75.4956 21.472 74.8716 21.472H67.8516V40.912C67.8516 41.656 67.6596 42.244 67.2756 42.676C66.8916 43.084 66.3156 43.288 65.5476 43.288ZM81.9309 43C81.1389 43 80.5269 42.796 80.0949 42.388C79.6869 41.956 79.4829 41.344 79.4829 40.552V20.068C79.4829 19.276 79.6869 18.676 80.0949 18.268C80.5269 17.836 81.1389 17.62 81.9309 17.62H94.7829C95.3829 17.62 95.8389 17.776 96.1509 18.088C96.4869 18.4 96.6549 18.844 96.6549 19.42C96.6549 20.02 96.4869 20.488 96.1509 20.824C95.8389 21.136 95.3829 21.292 94.7829 21.292H83.9109V28.276H93.9909C94.6149 28.276 95.0829 28.432 95.3949 28.744C95.7069 29.056 95.8629 29.512 95.8629 30.112C95.8629 30.712 95.7069 31.168 95.3949 31.48C95.0829 31.792 94.6149 31.948 93.9909 31.948H83.9109V39.328H94.7829C95.3829 39.328 95.8389 39.484 96.1509 39.796C96.4869 40.108 96.6549 40.564 96.6549 41.164C96.6549 41.764 96.4869 42.22 96.1509 42.532C95.8389 42.844 95.3829 43 94.7829 43H81.9309ZM103.267 43.288C102.523 43.288 101.947 43.084 101.539 42.676C101.155 42.244 100.963 41.656 100.963 40.912V19.672C100.963 18.904 101.155 18.328 101.539 17.944C101.947 17.536 102.523 17.332 103.267 17.332C104.011 17.332 104.575 17.536 104.959 17.944C105.367 18.328 105.571 18.904 105.571 19.672V28.384H109.675L108.775 28.996L115.399 18.52C115.735 18.016 116.119 17.68 116.551 17.512C117.007 17.344 117.451 17.308 117.883 17.404C118.315 17.5 118.687 17.704 118.999 18.016C119.311 18.328 119.479 18.712 119.503 19.168C119.551 19.624 119.407 20.116 119.071 20.644L113.023 29.896L111.223 28.564C112.783 28.804 114.103 29.368 115.183 30.256C116.263 31.144 117.187 32.38 117.955 33.964L120.907 40.012C121.219 40.612 121.315 41.152 121.195 41.632C121.099 42.112 120.859 42.496 120.475 42.784C120.115 43.048 119.695 43.204 119.215 43.252C118.759 43.3 118.303 43.216 117.847 43C117.415 42.76 117.067 42.364 116.803 41.812L113.959 35.692C113.383 34.444 112.687 33.556 111.871 33.028C111.079 32.5 110.083 32.236 108.883 32.236H105.571V40.912C105.571 41.656 105.379 42.244 104.995 42.676C104.611 43.084 104.035 43.288 103.267 43.288ZM124.981 43.288C124.405 43.288 123.937 43.156 123.577 42.892C123.241 42.628 123.037 42.28 122.965 41.848C122.893 41.392 122.977 40.888 123.217 40.336L132.721 19.276C133.033 18.58 133.405 18.088 133.837 17.8C134.293 17.488 134.809 17.332 135.385 17.332C135.937 17.332 136.429 17.488 136.861 17.8C137.317 18.088 137.701 18.58 138.013 19.276L147.553 40.336C147.817 40.888 147.913 41.392 147.841 41.848C147.769 42.304 147.565 42.664 147.229 42.928C146.893 43.168 146.449 43.288 145.897 43.288C145.225 43.288 144.697 43.132 144.313 42.82C143.953 42.484 143.629 41.98 143.341 41.308L141.001 35.872L142.945 37.132H127.753L129.697 35.872L127.393 41.308C127.081 42.004 126.757 42.508 126.421 42.82C126.085 43.132 125.605 43.288 124.981 43.288ZM135.313 22.624L130.273 34.612L129.337 33.46H141.361L140.461 34.612L135.385 22.624H135.313ZM153.822 43.288C153.078 43.288 152.502 43.084 152.094 42.676C151.71 42.244 151.518 41.656 151.518 40.912V19.96C151.518 19.192 151.722 18.616 152.13 18.232C152.538 17.824 153.114 17.62 153.858 17.62H162.534C165.318 17.62 167.466 18.316 168.978 19.708C170.49 21.1 171.246 23.044 171.246 25.54C171.246 28.036 170.49 29.992 168.978 31.408C167.466 32.8 165.318 33.496 162.534 33.496H156.126V40.912C156.126 41.656 155.934 42.244 155.55 42.676C155.166 43.084 154.59 43.288 153.822 43.288ZM156.126 29.86H161.814C163.446 29.86 164.682 29.5 165.522 28.78C166.362 28.036 166.782 26.956 166.782 25.54C166.782 24.124 166.362 23.056 165.522 22.336C164.682 21.616 163.446 21.256 161.814 21.256H156.126V29.86ZM186.459 43.36C183.819 43.36 181.551 42.832 179.655 41.776C177.783 40.696 176.343 39.184 175.335 37.24C174.327 35.272 173.823 32.956 173.823 30.292C173.823 28.3 174.111 26.512 174.687 24.928C175.263 23.32 176.091 21.952 177.171 20.824C178.251 19.672 179.571 18.796 181.131 18.196C182.715 17.572 184.491 17.26 186.459 17.26C187.779 17.26 189.075 17.428 190.347 17.764C191.619 18.1 192.735 18.58 193.695 19.204C194.199 19.516 194.535 19.9 194.703 20.356C194.871 20.788 194.907 21.22 194.811 21.652C194.715 22.06 194.511 22.408 194.199 22.696C193.911 22.984 193.539 23.152 193.083 23.2C192.651 23.224 192.171 23.068 191.643 22.732C190.899 22.252 190.095 21.904 189.231 21.688C188.367 21.472 187.491 21.364 186.603 21.364C184.899 21.364 183.459 21.712 182.283 22.408C181.107 23.104 180.219 24.112 179.619 25.432C179.019 26.752 178.719 28.372 178.719 30.292C178.719 32.188 179.019 33.808 179.619 35.152C180.219 36.496 181.107 37.516 182.283 38.212C183.459 38.908 184.899 39.256 186.603 39.256C187.515 39.256 188.415 39.148 189.303 38.932C190.191 38.692 191.031 38.332 191.823 37.852C192.351 37.54 192.819 37.408 193.227 37.456C193.659 37.48 194.019 37.624 194.307 37.888C194.595 38.152 194.787 38.488 194.883 38.896C194.979 39.28 194.955 39.688 194.811 40.12C194.667 40.528 194.379 40.888 193.947 41.2C192.987 41.896 191.835 42.436 190.491 42.82C189.171 43.18 187.827 43.36 186.459 43.36ZM201.424 43.288C200.68 43.288 200.104 43.084 199.696 42.676C199.312 42.244 199.12 41.656 199.12 40.912V19.672C199.12 18.904 199.312 18.328 199.696 17.944C200.104 17.536 200.68 17.332 201.424 17.332C202.168 17.332 202.732 17.536 203.116 17.944C203.524 18.328 203.728 18.904 203.728 19.672V28.384H207.832L206.932 28.996L213.556 18.52C213.892 18.016 214.276 17.68 214.708 17.512C215.164 17.344 215.608 17.308 216.04 17.404C216.472 17.5 216.844 17.704 217.156 18.016C217.468 18.328 217.636 18.712 217.66 19.168C217.708 19.624 217.564 20.116 217.228 20.644L211.18 29.896L209.38 28.564C210.94 28.804 212.26 29.368 213.34 30.256C214.42 31.144 215.344 32.38 216.112 33.964L219.064 40.012C219.376 40.612 219.472 41.152 219.352 41.632C219.256 42.112 219.016 42.496 218.632 42.784C218.272 43.048 217.852 43.204 217.372 43.252C216.916 43.3 216.46 43.216 216.004 43C215.572 42.76 215.224 42.364 214.96 41.812L212.116 35.692C211.54 34.444 210.844 33.556 210.028 33.028C209.236 32.5 208.24 32.236 207.04 32.236H203.728V40.912C203.728 41.656 203.536 42.244 203.152 42.676C202.768 43.084 202.192 43.288 201.424 43.288ZM225.357 43.288C225.045 43.288 224.769 43.24 224.529 43.144C224.289 43.048 224.085 42.904 223.917 42.712C223.749 42.496 223.617 42.244 223.521 41.956C223.449 41.668 223.413 41.332 223.413 40.948V19.528C223.413 18.832 223.593 18.292 223.953 17.908C224.337 17.524 224.877 17.332 225.573 17.332C226.269 17.332 226.797 17.524 227.157 17.908C227.517 18.292 227.697 18.832 227.697 19.528V36.556H226.869L240.549 18.664C240.909 18.184 241.257 17.848 241.593 17.656C241.929 17.44 242.373 17.332 242.925 17.332C243.309 17.332 243.633 17.416 243.897 17.584C244.185 17.752 244.401 18.004 244.545 18.34C244.713 18.652 244.797 19.024 244.797 19.456V41.056C244.797 41.776 244.617 42.328 244.257 42.712C243.897 43.096 243.369 43.288 242.673 43.288C241.977 43.288 241.437 43.096 241.053 42.712C240.693 42.328 240.513 41.776 240.513 41.056V24.028H241.305L227.661 41.92C227.277 42.4 226.929 42.748 226.617 42.964C226.329 43.18 225.909 43.288 225.357 43.288ZM252.286 43.288C251.974 43.288 251.698 43.24 251.458 43.144C251.218 43.048 251.014 42.904 250.846 42.712C250.678 42.496 250.546 42.244 250.45 41.956C250.378 41.668 250.342 41.332 250.342 40.948V19.528C250.342 18.832 250.522 18.292 250.882 17.908C251.266 17.524 251.806 17.332 252.502 17.332C253.198 17.332 253.726 17.524 254.086 17.908C254.446 18.292 254.626 18.832 254.626 19.528V36.556H253.798L267.478 18.664C267.838 18.184 268.186 17.848 268.522 17.656C268.858 17.44 269.302 17.332 269.854 17.332C270.238 17.332 270.562 17.416 270.826 17.584C271.114 17.752 271.33 18.004 271.474 18.34C271.642 18.652 271.726 19.024 271.726 19.456V41.056C271.726 41.776 271.546 42.328 271.186 42.712C270.826 43.096 270.298 43.288 269.602 43.288C268.906 43.288 268.366 43.096 267.982 42.712C267.622 42.328 267.442 41.776 267.442 41.056V24.028H268.234L254.59 41.92C254.206 42.4 253.858 42.748 253.546 42.964C253.258 43.18 252.838 43.288 252.286 43.288Z" fill="#222222"/>
<path d="M298.421 43.36C295.973 43.36 293.825 42.82 291.977 41.74C290.153 40.66 288.737 39.148 287.729 37.204C286.721 35.236 286.217 32.932 286.217 30.292C286.217 28.3 286.505 26.512 287.081 24.928C287.657 23.32 288.473 21.952 289.529 20.824C290.609 19.672 291.893 18.796 293.381 18.196C294.893 17.572 296.573 17.26 298.421 17.26C300.893 17.26 303.041 17.8 304.865 18.88C306.689 19.936 308.105 21.436 309.113 23.38C310.121 25.324 310.625 27.616 310.625 30.256C310.625 32.248 310.337 34.048 309.761 35.656C309.185 37.264 308.357 38.644 307.277 39.796C306.221 40.948 304.937 41.836 303.425 42.46C301.937 43.06 300.269 43.36 298.421 43.36ZM298.421 39.4C299.981 39.4 301.301 39.04 302.381 38.32C303.485 37.6 304.325 36.556 304.901 35.188C305.501 33.82 305.801 32.188 305.801 30.292C305.801 27.412 305.153 25.18 303.857 23.596C302.585 22.012 300.773 21.22 298.421 21.22C296.885 21.22 295.565 21.58 294.461 22.3C293.357 22.996 292.505 24.028 291.905 25.396C291.329 26.74 291.041 28.372 291.041 30.292C291.041 33.148 291.689 35.38 292.985 36.988C294.281 38.596 296.093 39.4 298.421 39.4ZM327.119 43.36C324.479 43.36 322.211 42.832 320.315 41.776C318.443 40.696 317.003 39.184 315.995 37.24C314.987 35.272 314.483 32.956 314.483 30.292C314.483 28.3 314.771 26.512 315.347 24.928C315.923 23.32 316.751 21.952 317.831 20.824C318.911 19.672 320.231 18.796 321.791 18.196C323.375 17.572 325.151 17.26 327.119 17.26C328.439 17.26 329.735 17.428 331.007 17.764C332.279 18.1 333.395 18.58 334.355 19.204C334.859 19.516 335.195 19.9 335.363 20.356C335.531 20.788 335.567 21.22 335.471 21.652C335.375 22.06 335.171 22.408 334.859 22.696C334.571 22.984 334.199 23.152 333.743 23.2C333.311 23.224 332.831 23.068 332.303 22.732C331.559 22.252 330.755 21.904 329.891 21.688C329.027 21.472 328.151 21.364 327.263 21.364C325.559 21.364 324.119 21.712 322.943 22.408C321.767 23.104 320.879 24.112 320.279 25.432C319.679 26.752 319.379 28.372 319.379 30.292C319.379 32.188 319.679 33.808 320.279 35.152C320.879 36.496 321.767 37.516 322.943 38.212C324.119 38.908 325.559 39.256 327.263 39.256C328.175 39.256 329.075 39.148 329.963 38.932C330.851 38.692 331.691 38.332 332.483 37.852C333.011 37.54 333.479 37.408 333.887 37.456C334.319 37.48 334.679 37.624 334.967 37.888C335.255 38.152 335.447 38.488 335.543 38.896C335.639 39.28 335.615 39.688 335.471 40.12C335.327 40.528 335.039 40.888 334.607 41.2C333.647 41.896 332.495 42.436 331.151 42.82C329.831 43.18 328.487 43.36 327.119 43.36ZM347.852 43.288C347.108 43.288 346.532 43.084 346.124 42.676C345.74 42.244 345.548 41.656 345.548 40.912V21.472H338.528C337.904 21.472 337.412 21.304 337.052 20.968C336.716 20.608 336.548 20.128 336.548 19.528C336.548 18.904 336.716 18.436 337.052 18.124C337.412 17.788 337.904 17.62 338.528 17.62H357.176C357.8 17.62 358.28 17.788 358.616 18.124C358.976 18.436 359.156 18.904 359.156 19.528C359.156 20.128 358.976 20.608 358.616 20.968C358.28 21.304 357.8 21.472 357.176 21.472H350.156V40.912C350.156 41.656 349.964 42.244 349.58 42.676C349.196 43.084 348.62 43.288 347.852 43.288ZM364.092 43.288C363.348 43.288 362.772 43.084 362.364 42.676C361.98 42.244 361.788 41.656 361.788 40.912V19.96C361.788 19.192 361.992 18.616 362.4 18.232C362.808 17.824 363.384 17.62 364.128 17.62H372.804C375.588 17.62 377.736 18.316 379.248 19.708C380.76 21.1 381.516 23.044 381.516 25.54C381.516 28.036 380.76 29.992 379.248 31.408C377.736 32.8 375.588 33.496 372.804 33.496H366.396V40.912C366.396 41.656 366.204 42.244 365.82 42.676C365.436 43.084 364.86 43.288 364.092 43.288ZM366.396 29.86H372.084C373.716 29.86 374.952 29.5 375.792 28.78C376.632 28.036 377.052 26.956 377.052 25.54C377.052 24.124 376.632 23.056 375.792 22.336C374.952 21.616 373.716 21.256 372.084 21.256H366.396V29.86ZM396.296 43.36C393.848 43.36 391.7 42.82 389.852 41.74C388.028 40.66 386.612 39.148 385.604 37.204C384.596 35.236 384.092 32.932 384.092 30.292C384.092 28.3 384.38 26.512 384.956 24.928C385.532 23.32 386.348 21.952 387.404 20.824C388.484 19.672 389.768 18.796 391.256 18.196C392.768 17.572 394.448 17.26 396.296 17.26C398.768 17.26 400.916 17.8 402.74 18.88C404.564 19.936 405.98 21.436 406.988 23.38C407.996 25.324 408.5 27.616 408.5 30.256C408.5 32.248 408.212 34.048 407.636 35.656C407.06 37.264 406.232 38.644 405.152 39.796C404.096 40.948 402.812 41.836 401.3 42.46C399.812 43.06 398.144 43.36 396.296 43.36ZM396.296 39.4C397.856 39.4 399.176 39.04 400.256 38.32C401.36 37.6 402.2 36.556 402.776 35.188C403.376 33.82 403.676 32.188 403.676 30.292C403.676 27.412 403.028 25.18 401.732 23.596C400.46 22.012 398.648 21.22 396.296 21.22C394.76 21.22 393.44 21.58 392.336 22.3C391.232 22.996 390.38 24.028 389.78 25.396C389.204 26.74 388.916 28.372 388.916 30.292C388.916 33.148 389.564 35.38 390.86 36.988C392.156 38.596 393.968 39.4 396.296 39.4ZM415.634 43C414.842 43 414.23 42.796 413.798 42.388C413.39 41.956 413.186 41.344 413.186 40.552V20.068C413.186 19.276 413.39 18.676 413.798 18.268C414.23 17.836 414.842 17.62 415.634 17.62H424.274C426.05 17.62 427.562 17.884 428.81 18.412C430.058 18.94 431.006 19.696 431.654 20.68C432.326 21.664 432.662 22.84 432.662 24.208C432.662 25.744 432.218 27.04 431.33 28.096C430.442 29.152 429.23 29.86 427.694 30.22V29.68C429.47 29.944 430.85 30.616 431.834 31.696C432.818 32.776 433.31 34.18 433.31 35.908C433.31 38.164 432.542 39.916 431.006 41.164C429.494 42.388 427.382 43 424.67 43H415.634ZM417.614 39.508H424.094C425.726 39.508 426.926 39.196 427.694 38.572C428.462 37.924 428.846 36.964 428.846 35.692C428.846 34.396 428.462 33.436 427.694 32.812C426.926 32.188 425.726 31.876 424.094 31.876H417.614V39.508ZM417.614 28.384H423.482C425.066 28.384 426.242 28.084 427.01 27.484C427.802 26.86 428.198 25.948 428.198 24.748C428.198 23.548 427.802 22.648 427.01 22.048C426.242 21.424 425.066 21.112 423.482 21.112H417.614V28.384Z" fill="#1B58A6"/>
<path d="M250 2C253.237 2.7033 259.765 5.05968 259.98 8.85879C260.247 13.6077 266.989 2 274 2" stroke="#1B58A6" stroke-width="4" stroke-linecap="round"/>
</svg>
