<svg width="35" height="35" viewBox="0 0 35 35" fill="none" xmlns="http://www.w3.org/2000/svg">
<path d="M23.3231 25.3248L16.8172 31.7408C13.0459 35.4583 6.97441 35.4143 3.25669 31.6431C-0.460696 27.8718 -0.416791 21.8012 3.35434 18.0836L9.76255 11.7642L23.3231 25.3248ZM5.41294 20.7281C4.95938 20.4786 4.39623 20.6177 4.10825 21.0347L4.05454 21.1216C2.75676 23.479 2.63369 26.0495 4.05747 28.4449L4.20102 28.6753L4.25962 28.7593C4.57432 29.1565 5.1457 29.2587 5.58188 28.98C6.01788 28.7011 6.16474 28.1394 5.93638 27.6871L5.88559 27.5982L5.68638 27.2642C4.75831 25.5891 4.8436 23.8357 5.80649 22.0865L5.85141 21.9947C6.04989 21.5282 5.86658 20.9778 5.41294 20.7281ZM18.1825 3.46539C21.9537 -0.252415 28.0252 -0.209208 31.743 3.56207C35.4605 7.33336 35.4165 13.4039 31.6454 17.1216L24.7479 23.9214L11.1874 10.3609L18.1825 3.46539Z" fill="currentColor"/>
</svg>
