<svg width="38" height="38" viewBox="0 0 38 38" fill="none" xmlns="http://www.w3.org/2000/svg">
<path d="M28.588 1.18198C29.1738 0.596194 30.1235 0.596194 30.7093 1.18198L37.0733 7.54594C37.6591 8.13173 37.6591 9.08148 37.0733 9.66726C36.4875 10.253 35.5378 10.253 34.952 9.66726L28.588 3.3033C28.0022 2.71751 28.0022 1.76777 28.588 1.18198Z" fill="currentColor"/>
<path d="M20.1027 5.42462C20.6885 4.83883 21.6383 4.83883 22.224 5.42462L32.8306 16.0312C33.4164 16.617 33.4164 17.5668 32.8306 18.1525C32.2449 18.7383 31.2951 18.7383 30.7093 18.1525L20.1027 7.54594C19.5169 6.96015 19.5169 6.01041 20.1027 5.42462Z" fill="currentColor"/>
<path d="M1.36439 36.8909C0.778607 36.3051 0.778607 35.3553 1.36439 34.7696L10.6756 25.4584C11.2613 24.8726 12.2111 24.8726 12.7969 25.4584C13.3827 26.0442 13.3827 26.9939 12.7969 27.5797L3.48571 36.8909C2.89993 37.4767 1.95018 37.4767 1.36439 36.8909Z" fill="currentColor"/>
<path d="M29.6514 4.36672L33.8941 8.60936L26.823 15.6804L22.5804 11.4378L29.6514 4.36672Z" fill="currentColor"/>
<path d="M27.5273 19.2132L24.3454 16.0312C23.7596 15.4454 22.8098 15.4454 22.224 16.0312C21.6383 16.617 21.6383 17.5668 22.224 18.1525L25.406 21.3345L23.2847 23.4558L20.1027 20.2739C19.5169 19.6881 18.5672 19.6881 17.9814 20.2739C17.3956 20.8596 17.3956 21.8094 17.9814 22.3952L21.1634 25.5772L19.0421 27.6985L15.8601 24.5165C15.2743 23.9307 14.3245 23.9307 13.7388 24.5165C13.153 25.1023 13.153 26.052 13.7388 26.6378L16.9207 29.8198L14.0965 32.6441C11.7509 34.9893 7.94843 34.9893 5.60289 32.6441C3.25727 30.2985 3.25727 26.4948 5.60289 24.1491L21.1544 8.59762L29.6487 17.0919L27.5273 19.2132Z" fill="currentColor"/>
</svg>
