<svg width="336" height="193" viewBox="0 0 336 193" fill="none" xmlns="http://www.w3.org/2000/svg">
<mask id="mask0_718_1149" style="mask-type:alpha" maskUnits="userSpaceOnUse" x="0" y="0" width="336" height="193">
<rect width="336" height="193" rx="42" fill="#F5F8FA"/>
</mask>
<g mask="url(#mask0_718_1149)">
<g filter="url(#filter0_d_718_1149)">
<path d="M34.6779 63.7114C30.1037 58.2216 26.1012 58.8316 24.6717 59.8228C8.66174 72.8154 68.5085 88.7203 100.433 95.0487C121.648 98.0464 150.274 100.447 142.841 138.509C133.593 185.862 182.635 185.86 209.641 185.859H210.025C236.947 185.859 243.141 197.067 232.42 214.909C222.098 232.087 204.267 216.823 209.334 237.712C209.725 239.327 209.388 241.092 208.26 242.314C187.591 264.707 182.264 227.156 152.132 231.607C121.16 236.182 128.308 220.17 83.0414 209.877C48.2191 201.958 59.5121 219.491 70.5283 230.341C71.3695 231.169 71.9169 232.27 72.0683 233.441C75.5326 260.23 83.7205 255.809 114.251 253.795C145.461 251.736 115.681 289.25 152.132 271.637C170.692 262.668 178.913 263.85 181.966 267.761C184.291 270.74 187.564 274.616 191.33 274.294C201.208 273.45 203.379 277.492 203.043 280.596L203.033 280.689C202.972 281.246 202.912 281.801 202.936 282.36C203.176 287.941 201.365 297.872 192.157 299.085C180.007 300.687 182.627 308.235 187.154 311.895C191.68 315.555 193.825 311.895 187.154 327.449C182.87 337.438 188.431 339.448 193.709 339.063C195.925 338.902 198.183 339.757 199.441 341.589C211.427 359.037 220.773 353.535 224.082 348.265C229.799 340.716 202.401 323.103 217.887 308.235C229.852 296.748 229.799 301.83 232.42 292.909C235.041 283.989 261.962 279.185 258.15 289.25C254.339 299.314 253.386 305.719 258.15 311.895C262.915 318.071 267.918 315.784 258.15 333.168C248.382 350.552 245.047 364.048 253.386 364.963C261.724 365.878 261.486 372.969 258.15 382.347C254.815 391.725 269.11 396.986 274.589 379.373C280.069 361.76 304.132 377.315 319.856 369.309C335.58 361.303 332.959 386.236 346.062 377.315C359.166 368.394 326.526 349.637 346.062 343.461C365.598 337.285 356.783 335.684 366.551 323.103C372.672 315.22 377.73 317.113 380.628 320.319C381.995 321.831 383.885 323.012 385.913 322.805C434.466 317.837 418.751 287.685 377.749 279.185C351.478 273.739 334.599 256.341 331.87 246.414C330.993 243.223 330.289 238.318 328.311 235.665C317.273 220.866 323.33 193.021 326.526 185.859C330.1 177.853 334.15 191.806 339.63 188.375C345.109 184.944 339.63 171.448 330.1 170.762C320.57 170.076 317.473 167.331 317.95 159.554C318.426 151.776 297.699 143.999 284.834 144.457C271.969 144.914 280.784 113.805 264.821 121.125C252.425 126.81 245.462 120.883 243.321 116.904C243.196 116.671 243.06 116.434 242.909 116.216C237.461 108.372 238.761 110.4 232.182 112.204C227.228 113.563 223.943 110.428 222.672 108.324L222.669 108.32C222.487 108.017 222.305 107.717 222.071 107.453C219.026 104.024 210.458 98.2696 197.637 99.8523C180.96 101.911 175.242 96.6499 173.097 90.9314C171.382 86.3566 162.218 83.8404 157.85 83.1542C144.032 80.7906 114.632 73.227 107.58 61.8814C100.951 51.2161 94.3642 49.5525 91.4212 50.0881C91.0857 50.1491 90.7776 50.2963 90.4698 50.4433L90.4315 50.4617C88.0159 51.6143 81.7889 53.2385 72.5587 52.0456C63.247 50.8421 56.7114 53.3134 54.1768 54.9446C53.8778 55.137 53.6223 55.3819 53.3854 55.6469C48.7803 60.7995 39.1352 69.0608 34.6779 63.7114Z" fill="#93B075"/>
</g>
<g filter="url(#filter1_d_718_1149)">
<path d="M34.6779 54.7114C30.1037 49.2216 26.1012 49.8316 24.6717 50.8228C8.66174 63.8154 68.5085 79.7203 100.433 86.0487C118.398 89.61 150.274 91.447 142.841 129.509C133.593 176.862 182.635 176.86 209.641 176.859H210.025C236.947 176.859 243.141 188.067 232.42 205.909C222.098 223.087 204.267 207.823 209.334 228.712C209.725 230.327 209.388 232.092 208.26 233.314C187.591 255.707 182.264 218.156 152.132 222.607C121.16 227.182 128.308 211.17 83.0414 200.877C48.2191 192.958 59.5121 210.491 70.5283 221.341C71.3695 222.169 71.9169 223.27 72.0683 224.441C75.5326 251.23 83.7205 246.809 114.251 244.795C145.461 242.736 115.681 280.25 152.132 262.637C170.692 253.668 178.913 254.85 181.966 258.761C184.291 261.74 187.564 265.616 191.33 265.294C201.208 264.45 203.379 268.492 203.043 271.596L203.033 271.689C202.972 272.246 202.912 272.801 202.936 273.36C203.176 278.941 201.365 288.872 192.157 290.085C180.007 291.687 182.627 299.235 187.154 302.895C191.68 306.555 193.825 302.895 187.154 318.449C182.87 328.438 188.431 330.448 193.709 330.063C195.925 329.902 198.183 330.757 199.441 332.589C211.427 350.037 220.773 344.535 224.082 339.265C229.799 331.716 202.401 314.103 217.887 299.235C229.852 287.748 229.799 292.83 232.42 283.909C235.041 274.989 261.962 270.185 258.15 280.25C254.339 290.314 253.386 296.719 258.15 302.895C262.915 309.071 267.918 306.784 258.15 324.168C248.382 341.552 245.047 355.048 253.386 355.963C261.724 356.878 261.486 363.969 258.15 373.347C254.815 382.725 269.11 387.986 274.589 370.373C280.069 352.76 304.132 368.315 319.856 360.309C335.58 352.303 332.959 377.236 346.062 368.315C359.166 359.394 326.526 340.637 346.062 334.461C365.598 328.285 356.783 326.684 366.551 314.103C372.672 306.22 377.73 308.113 380.628 311.319C381.995 312.831 383.885 314.012 385.913 313.805C434.466 308.837 418.751 278.685 377.749 270.185C351.478 264.739 334.599 247.341 331.87 237.414C330.993 234.223 330.289 229.318 328.311 226.665C317.273 211.866 323.33 184.021 326.526 176.859C330.1 168.853 334.15 182.806 339.63 179.375C345.109 175.944 339.63 162.448 330.1 161.762C320.57 161.076 317.473 158.331 317.95 150.554C318.426 142.776 297.699 134.999 284.834 135.457C271.969 135.914 280.784 104.805 264.821 112.125C252.425 117.81 245.462 111.883 243.321 107.904C243.196 107.671 243.06 107.434 242.909 107.216C237.461 99.3723 238.761 101.4 232.182 103.204C227.228 104.563 223.943 101.428 222.672 99.3242L222.669 99.3197C222.487 99.0173 222.305 98.7173 222.071 98.4531C219.026 95.0244 210.458 89.2696 197.637 90.8523C180.96 92.911 175.242 87.6499 173.097 81.9314C171.382 77.3566 162.218 74.8404 157.85 74.1542C144.032 71.7906 114.632 64.227 107.58 52.8814C100.951 42.2161 94.3642 40.5525 91.4212 41.0881C91.0857 41.1491 90.7776 41.2963 90.4698 41.4433L90.4315 41.4617C88.0159 42.6143 81.7889 44.2385 72.5587 43.0456C63.247 41.8421 56.7114 44.3134 54.1768 45.9446C53.8778 46.137 53.6223 46.3819 53.3854 46.6469C48.7803 51.7995 39.1352 60.0608 34.6779 54.7114Z" fill="#C5D5A2"/>
</g>
<path d="M44.6779 54.7114C40.1037 49.2216 36.1012 49.8316 34.6717 50.8228C18.6617 63.8154 78.5085 79.7203 110.433 86.0487C127.599 89.4514 160.274 91.447 152.841 129.509C143.593 176.862 192.635 176.86 219.641 176.859H220.025C246.947 176.859 253.141 188.067 242.42 205.909C232.098 223.087 214.267 207.823 219.334 228.712C219.725 230.327 219.388 232.092 218.26 233.314C197.591 255.707 192.264 218.156 162.132 222.607C131.16 227.182 138.308 211.17 93.0414 200.877C58.2191 192.958 69.5121 210.491 80.5283 221.341C81.3695 222.169 81.9169 223.27 82.0683 224.441C85.5326 251.23 93.7205 246.809 124.251 244.795C155.461 242.736 125.681 280.25 162.132 262.637C180.692 253.668 188.913 254.85 191.966 258.761C194.291 261.74 197.564 265.616 201.33 265.294C211.208 264.45 213.379 268.492 213.043 271.596L213.033 271.689C212.972 272.246 212.912 272.801 212.936 273.36C213.176 278.941 211.365 288.872 202.157 290.085C190.007 291.687 192.627 299.235 197.154 302.895C201.68 306.555 203.825 302.895 197.154 318.449C192.87 328.438 198.431 330.448 203.709 330.063C205.925 329.902 208.183 330.757 209.441 332.589C221.427 350.037 230.773 344.535 234.082 339.265C239.799 331.716 212.401 314.103 227.887 299.235C239.852 287.748 239.799 292.83 242.42 283.909C245.041 274.989 271.962 270.185 268.15 280.25C264.339 290.314 263.386 296.719 268.15 302.895C272.915 309.071 277.918 306.784 268.15 324.168C258.382 341.552 255.047 355.048 263.386 355.963C271.724 356.878 271.486 363.969 268.15 373.347C264.815 382.725 279.11 387.986 284.589 370.373C290.069 352.76 314.132 368.315 329.856 360.309C345.58 352.303 342.959 377.236 356.062 368.315C369.166 359.394 336.526 340.637 356.062 334.461C375.598 328.285 366.783 326.684 376.551 314.103C382.672 306.22 387.73 308.113 390.628 311.319C391.995 312.831 393.885 314.012 395.913 313.805C444.466 308.837 428.751 278.685 387.749 270.185C361.478 264.739 344.599 247.341 341.87 237.414C340.993 234.223 340.289 229.318 338.311 226.665C327.273 211.866 333.33 184.021 336.526 176.859C340.1 168.853 344.15 182.806 349.63 179.375C355.109 175.944 349.63 162.448 340.1 161.762C330.57 161.076 327.473 158.331 327.95 150.554C328.426 142.776 307.699 134.999 294.834 135.457C281.969 135.914 290.784 104.805 274.821 112.125C262.425 117.81 255.462 111.883 253.321 107.904C253.196 107.671 253.06 107.434 252.909 107.216C247.461 99.3723 248.761 101.4 242.182 103.204C237.228 104.563 233.943 101.428 232.672 99.3242L232.669 99.3197C232.487 99.0173 232.305 98.7173 232.071 98.4531C229.026 95.0244 220.458 89.2696 207.637 90.8523C190.96 92.911 185.242 87.6499 183.097 81.9314C181.382 77.3566 172.218 74.8404 167.85 74.1542C154.032 71.7906 124.632 64.227 117.58 52.8814C110.951 42.2161 104.364 40.5525 101.421 41.0881C101.086 41.1491 100.778 41.2963 100.47 41.4433L100.431 41.4617C98.0159 42.6143 91.7889 44.2385 82.5587 43.0456C73.247 41.8421 66.7114 44.3134 64.1768 45.9446C63.8778 46.137 63.6223 46.3819 63.3854 46.6469C58.7803 51.7995 49.1352 60.0608 44.6779 54.7114Z" stroke="#DFE6D6" stroke-linejoin="round"/>
</g>
<path d="M228.098 126.316L239.128 142.454C240.675 144.717 243.973 144.781 245.558 142.545C248.404 138.532 252.385 132.732 256.464 126.316C264.101 114.303 265.192 105.566 258.646 96.8292C252.1 88.0923 235.735 84.816 225.916 96.8292C218.061 106.44 223.734 120.492 228.098 126.316Z" fill="#222222"/>
<rect x="235.35" y="99.8672" width="13.3514" height="25.8128" rx="6.67572" fill="#C5D5A2"/>
<path d="M249.59 113.219C249.59 113.219 247.226 114.554 242.024 114.554C236.823 114.554 234.458 113.219 234.458 113.219" stroke="#222222" stroke-width="1.5"/>
<g filter="url(#filter2_f_718_1149)">
<ellipse cx="242.473" cy="153.767" rx="7.07222" ry="2.23333" fill="#ADC281"/>
</g>
<path d="M94.529 71.8305V64.6427V62.7971M94.529 57.207L97.5032 61.1162M94.529 57.207L91.5547 61.1162M94.529 57.207V62.7971M94.529 62.7971L91.5547 66.9995M94.529 62.7971L97.5032 66.9995" stroke="#93B075" stroke-linecap="round" stroke-linejoin="round"/>
<g filter="url(#filter3_f_718_1149)">
<ellipse cx="88.3136" cy="71.3156" rx="3.30189" ry="0.900515" fill="#ADC281"/>
</g>
<path d="M84.6323 58.8714V49.4031M84.6323 44L87.8544 48.5875M84.6323 44L81.4102 48.5875M84.6323 44V49.4031M84.6323 49.4031L81.7927 54.506M84.6323 49.4031L87.8544 54.506" stroke="#93B075" stroke-linecap="round" stroke-linejoin="round"/>
<g filter="url(#filter4_f_718_1149)">
<ellipse cx="78.0288" cy="58.799" rx="3.22213" ry="0.991424" fill="#ADC281"/>
</g>
<g filter="url(#filter5_f_718_1149)">
<ellipse cx="64.7178" cy="75.009" rx="3.71784" ry="0.991424" fill="#ADC281"/>
</g>
<path d="M72.2367 75.252V67.4141M72.2367 62.6113L69.1055 66.3292M72.2367 62.6113L75.1089 66.3292M72.2367 62.6113V67.4141M72.2367 67.4141L69.1055 71.3163M72.2367 67.4141L75.1089 71.3163" stroke="#93B075" stroke-linecap="round" stroke-linejoin="round"/>
<g filter="url(#filter6_f_718_1149)">
<ellipse cx="162.233" cy="143.997" rx="5.23335" ry="1.16297" fill="#ADC281"/>
</g>
<path d="M179.884 141.225L179.823 142.511C179.773 143.578 178.894 144.417 177.826 144.417H174.774C173.669 144.417 172.774 143.522 172.774 142.417V139.877C172.774 139.465 173.108 139.131 173.52 139.131H177.886C179.028 139.131 179.938 140.085 179.884 141.225Z" stroke="#93B075" stroke-linecap="round" stroke-linejoin="round"/>
<path d="M179.501 139.131C180.995 136.783 182.488 135.383 184.824 133.627C185.309 133.263 185.372 132.555 184.951 132.118L184.066 131.201M184.066 131.201L174.214 139.131M184.066 131.201L182.865 130" stroke="#93B075" stroke-linecap="round" stroke-linejoin="round"/>
<path d="M197.889 141.225L197.95 142.511C198 143.578 198.88 144.417 199.948 144.417H203C204.104 144.417 205 143.522 205 142.417V139.877C205 139.465 204.666 139.131 204.254 139.131H199.887C198.746 139.131 197.836 140.085 197.889 141.225Z" stroke="#93B075" stroke-linecap="round" stroke-linejoin="round"/>
<path d="M198.273 139.131C196.779 136.783 195.285 135.383 192.949 133.627C192.464 133.263 192.401 132.555 192.823 132.118L193.707 131.201M193.707 131.201L203.559 139.131M193.707 131.201L194.909 130" stroke="#93B075" stroke-linecap="round" stroke-linejoin="round"/>
<path d="M276.849 184.434H279.792M279.792 184.434H273.415C272.526 184.434 270.987 184.117 269.969 183.051C269.129 182.171 270.089 181 271.306 181H282.414C283.623 181 284.589 182.162 283.758 183.041C282.637 184.226 280.827 184.491 279.792 184.434Z" stroke="#93B075" stroke-linecap="round" stroke-linejoin="round"/>
<path d="M276.917 179.435V175.059M276.917 169.85C276.917 167.558 279.835 167.141 279.835 170.058M276.917 169.85C276.501 167.35 273.792 167.35 273.792 170.058M276.917 169.85V175.059M276.917 175.059C277.334 172.871 281.085 172.351 281.293 176.518M276.917 175.059C276.501 173.184 272.75 172.351 272.75 176.518" stroke="#93B075" stroke-linecap="round" stroke-linejoin="round"/>
<g filter="url(#filter7_f_718_1149)">
<ellipse cx="290.585" cy="184.679" rx="4.41509" ry="0.981132" fill="#ADC281"/>
</g>
<defs>
<filter id="filter0_d_718_1149" x="18" y="50" width="402" height="349" filterUnits="userSpaceOnUse" color-interpolation-filters="sRGB">
<feFlood flood-opacity="0" result="BackgroundImageFix"/>
<feColorMatrix in="SourceAlpha" type="matrix" values="0 0 0 0 0 0 0 0 0 0 0 0 0 0 0 0 0 0 127 0" result="hardAlpha"/>
<feOffset dy="4"/>
<feGaussianBlur stdDeviation="2"/>
<feComposite in2="hardAlpha" operator="out"/>
<feColorMatrix type="matrix" values="0 0 0 0 0 0 0 0 0 0 0 0 0 0 0 0 0 0 0.25 0"/>
<feBlend mode="normal" in2="BackgroundImageFix" result="effect1_dropShadow_718_1149"/>
<feBlend mode="normal" in="SourceGraphic" in2="effect1_dropShadow_718_1149" result="shape"/>
</filter>
<filter id="filter1_d_718_1149" x="18" y="41" width="402" height="349" filterUnits="userSpaceOnUse" color-interpolation-filters="sRGB">
<feFlood flood-opacity="0" result="BackgroundImageFix"/>
<feColorMatrix in="SourceAlpha" type="matrix" values="0 0 0 0 0 0 0 0 0 0 0 0 0 0 0 0 0 0 127 0" result="hardAlpha"/>
<feOffset dy="4"/>
<feGaussianBlur stdDeviation="2"/>
<feComposite in2="hardAlpha" operator="out"/>
<feColorMatrix type="matrix" values="0 0 0 0 0.364706 0 0 0 0 0.490196 0 0 0 0 0.254902 0 0 0 1 0"/>
<feBlend mode="normal" in2="BackgroundImageFix" result="effect1_dropShadow_718_1149"/>
<feBlend mode="normal" in="SourceGraphic" in2="effect1_dropShadow_718_1149" result="shape"/>
</filter>
<filter id="filter2_f_718_1149" x="231.4" y="147.533" width="22.1445" height="12.4668" filterUnits="userSpaceOnUse" color-interpolation-filters="sRGB">
<feFlood flood-opacity="0" result="BackgroundImageFix"/>
<feBlend mode="normal" in="SourceGraphic" in2="BackgroundImageFix" result="shape"/>
<feGaussianBlur stdDeviation="2" result="effect1_foregroundBlur_718_1149"/>
</filter>
<filter id="filter3_f_718_1149" x="83.0117" y="68.415" width="10.6035" height="5.80078" filterUnits="userSpaceOnUse" color-interpolation-filters="sRGB">
<feFlood flood-opacity="0" result="BackgroundImageFix"/>
<feBlend mode="normal" in="SourceGraphic" in2="BackgroundImageFix" result="shape"/>
<feGaussianBlur stdDeviation="1" result="effect1_foregroundBlur_718_1149"/>
</filter>
<filter id="filter4_f_718_1149" x="72.8066" y="55.8076" width="10.4434" height="5.98242" filterUnits="userSpaceOnUse" color-interpolation-filters="sRGB">
<feFlood flood-opacity="0" result="BackgroundImageFix"/>
<feBlend mode="normal" in="SourceGraphic" in2="BackgroundImageFix" result="shape"/>
<feGaussianBlur stdDeviation="1" result="effect1_foregroundBlur_718_1149"/>
</filter>
<filter id="filter5_f_718_1149" x="59" y="72.0176" width="11.4355" height="5.98242" filterUnits="userSpaceOnUse" color-interpolation-filters="sRGB">
<feFlood flood-opacity="0" result="BackgroundImageFix"/>
<feBlend mode="normal" in="SourceGraphic" in2="BackgroundImageFix" result="shape"/>
<feGaussianBlur stdDeviation="1" result="effect1_foregroundBlur_718_1149"/>
</filter>
<filter id="filter6_f_718_1149" x="154" y="139.834" width="16.4668" height="8.32617" filterUnits="userSpaceOnUse" color-interpolation-filters="sRGB">
<feFlood flood-opacity="0" result="BackgroundImageFix"/>
<feBlend mode="normal" in="SourceGraphic" in2="BackgroundImageFix" result="shape"/>
<feGaussianBlur stdDeviation="1.5" result="effect1_foregroundBlur_718_1149"/>
</filter>
<filter id="filter7_f_718_1149" x="283.17" y="180.698" width="14.8301" height="7.96191" filterUnits="userSpaceOnUse" color-interpolation-filters="sRGB">
<feFlood flood-opacity="0" result="BackgroundImageFix"/>
<feBlend mode="normal" in="SourceGraphic" in2="BackgroundImageFix" result="shape"/>
<feGaussianBlur stdDeviation="1.5" result="effect1_foregroundBlur_718_1149"/>
</filter>
</defs>
</svg>
